<?xml version="1.0" encoding="UTF-8" standalone="no"?>
<svg
  version="1.2"
  width="180"
  height="180"
  viewBox="0 0 4762.4994 4762.4995"
  preserveAspectRatio="xMidYMid"
  fill-rule="evenodd"
  stroke-width="28.222"
  stroke-linejoin="round"
  xml:space="preserve"
  id="svg39161"
  sodipodi:docname="Emergency3ungroup.svg"
  inkscape:version="1.1.1 (3bf5ae0d25, 2021-09-20)"
  xmlns:inkscape="http://www.inkscape.org/namespaces/inkscape"
  xmlns:sodipodi="http://sodipodi.sourceforge.net/DTD/sodipodi-0.dtd"
  xmlns="http://www.w3.org/2000/svg"
  xmlns:svg="http://www.w3.org/2000/svg">
  <sodipodi:namedview
    id="namedview39163"
    pagecolor="#505050"
    bordercolor="#eeeeee"
    borderopacity="1"
    inkscape:pageshadow="0"
    inkscape:pageopacity="0"
    inkscape:pagecheckerboard="0"
    inkscape:document-units="px"
    showgrid="false"
    units="px"
    inkscape:zoom="3.643714"
    inkscape:cx="48.851255"
    inkscape:cy="94.820834"
    inkscape:window-width="1920"
    inkscape:window-height="1017"
    inkscape:window-x="-8"
    inkscape:window-y="-8"
    inkscape:window-maximized="1"
    inkscape:current-layer="Slide_1_page1" />
 
  <g
    visibility="visible"
    id="Slide_1_page1"
    transform="translate(-26198.998,-5344.3632)">
    <path
      fill="#f2f2f2"
      stroke="none"
      d="m 28580.248,5397.2798 c 1319.39,0 2328.333,1007.9561 2328.333,2327.5729 0,1319.617 -1008.943,2329.0933 -2328.333,2329.0933 -1319.389,0 -2328.333,-1009.4763 -2328.333,-2329.0933 0,-1319.6168 1008.944,-2327.5729 2328.333,-2327.5729 z"
      id="path39130"
      style="stroke-width:42.1091" />
	<path
      fill="none"
      stroke="#d9d9d9"
      id="Drawing_3_Wzór_przycisku_0"
      stroke-width="52.2301"
      d="m 28580.247,5396.9365 c 1319.583,0 2328.677,1008.1049 2328.677,2327.9164 0,1319.8116 -1009.094,2329.4361 -2328.677,2329.4361 -1319.583,0 -2328.676,-1009.6245 -2328.676,-2329.4361 0,-1319.8115 1009.093,-2327.9164 2328.676,-2327.9164 z" />
	<rect
      fill="none"
      stroke="none"
      x="26251.912"
      y="5397.2798"
      width="4656.6665"
      height="4656.666"
      id="rect39133"
      style="stroke-width:42.0888" />
	<path
      fill="#ffd966"
      stroke="none"
      d="m 28580.246,6085.1982 1481.668,2698.7497 h -2963.333 z"
      id="path1214"
      style="visibility:visible;stroke-width:38.9068" />
	<path
      fill="none"
      stroke="#000000"
      id="Drawing_4_Trójkąt_równoramienny_17_0"
      stroke-width="109.818"
      d="m 28580.248,6034.266 1479.677,2747.6874 H 27100.57 Z"
      style="visibility:visible" />
	<path
      d="m 28447.957,7090.613 h 264.583 v 467.1053 l -37.483,340.7509 h -189.617 l -37.483,-340.7509 z m 0,926.8742 h 264.583 v 290.2089 h -264.583 z"
      id="path1845"
      style="font-style:normal;font-weight:700;font-size:1129px;font-family:'Arial embedded';display:inline;visibility:visible;fill:#000000;stroke:none;stroke-width:39.6263" />
  </g>
</svg>
